<svg xmlns="http://www.w3.org/2000/svg" width="1200" height="720" viewBox="0 0 1200 720" role="img" aria-labelledby="title desc"><title id="title">CAD to WebXR Geometry Automation</title><desc id="desc">Stylized DXF to GLB conversion pipeline for browser and WebXR visualization.</desc><defs><linearGradient id="bg" x1="0" y1="0" x2="1" y2="1"><stop offset="0" stop-color="#111827"/><stop offset="1" stop-color="#14314f"/></linearGradient><linearGradient id="cube" x1="0" y1="0" x2="1" y2="1"><stop offset="0" stop-color="#60a5fa"/><stop offset="1" stop-color="#a78bfa"/></linearGradient><filter id="s" x="-20%" y="-20%" width="140%" height="140%"><feDropShadow dx="0" dy="18" stdDeviation="20" flood-color="#000" flood-opacity=".34"/></filter></defs><rect width="1200" height="720" rx="36" fill="url(#bg)"/><g opacity=".18" stroke="#bfdbfe" stroke-width="2"><path d="M80 145h250M875 140h245M90 580h250M880 580h240"/><path d="M200 90v110M1010 95v125M300 500v120M950 500v120"/></g><g filter="url(#s)"><rect x="145" y="165" width="910" height="390" rx="30" fill="#111f33" stroke="#45648c" stroke-width="3"/><rect x="215" y="245" width="230" height="220" rx="20" fill="#0d1726" stroke="#60a5fa" stroke-width="3"/><path d="M275 390h110M275 355h90M275 320h130M275 285h70" stroke="#bfdbfe" stroke-width="9" stroke-linecap="round"/><text x="255" y="435" fill="#60a5fa" font-family="Inter,Arial,sans-serif" font-size="34" font-weight="700">DXF</text><path d="M480 350h190" stroke="#a78bfa" stroke-width="12" stroke-linecap="round"/><path d="M630 310l48 40-48 40" fill="none" stroke="#a78bfa" stroke-width="12" stroke-linecap="round" stroke-linejoin="round"/><rect x="715" y="240" width="250" height="230" rx="20" fill="#0d1726" stroke="#a78bfa" stroke-width="3"/><path d="M840 280l95 55v110l-95 55-95-55V335z" fill="#16253a" stroke="url(#cube)" stroke-width="6"/><path d="M840 280v110m-95-55 95 55 95-55M840 390v110" fill="none" stroke="#bfdbfe" stroke-width="5" opacity=".8"/><text x="775" y="435" fill="#e9d5ff" font-family="Inter,Arial,sans-serif" font-size="34" font-weight="700">GLB</text><rect x="505" y="410" width="130" height="48" rx="24" fill="#243b63"/><text x="532" y="442" fill="#dbeafe" font-family="Inter,Arial,sans-serif" font-size="24" font-weight="700">Blender</text></g><text x="80" y="665" fill="#f8fbff" font-family="Inter,Arial,sans-serif" font-size="44" font-weight="700">CAD to WebXR Geometry Automation</text><text x="82" y="615" fill="#bfdbfe" font-family="Inter,Arial,sans-serif" font-size="24">Blender Python • DXF import • GLB export • browser-ready geometry</text></svg>