<svg xmlns="http://www.w3.org/2000/svg" width="1200" height="720" viewBox="0 0 1200 720" role="img" aria-labelledby="title desc"><title id="title">Chatbots and Engineering Workflow Automation</title><desc id="desc">Stylized chatbot automation workflow with knowledge nodes and document pipeline.</desc><defs><linearGradient id="bg" x1="0" y1="0" x2="1" y2="1"><stop offset="0" stop-color="#0b1020"/><stop offset="1" stop-color="#24365f"/></linearGradient><linearGradient id="bubble" x1="0" y1="0" x2="1" y2="1"><stop offset="0" stop-color="#22d3ee"/><stop offset="1" stop-color="#818cf8"/></linearGradient><filter id="s" x="-20%" y="-20%" width="140%" height="140%"><feDropShadow dx="0" dy="18" stdDeviation="20" flood-color="#000" flood-opacity=".34"/></filter></defs><rect width="1200" height="720" rx="36" fill="url(#bg)"/><g opacity=".18" stroke="#a5b4fc" stroke-width="2"><path d="M90 150h240M870 140h240M80 575h260M880 580h240"/><path d="M200 90v110M1010 90v130M310 510v110M945 500v120"/></g><g filter="url(#s)"><rect x="165" y="160" width="870" height="400" rx="30" fill="#101a31" stroke="#43558a" stroke-width="3"/><rect x="245" y="230" width="330" height="190" rx="30" fill="url(#bubble)"/><path d="M305 420l-46 55 95-47" fill="#22d3ee"/><circle cx="335" cy="320" r="18" fill="#f8fbff"/><circle cx="410" cy="320" r="18" fill="#f8fbff"/><circle cx="485" cy="320" r="18" fill="#f8fbff"/><path d="M620 330h150" stroke="#a5b4fc" stroke-width="12" stroke-linecap="round"/><path d="M730 292l48 38-48 38" fill="none" stroke="#a5b4fc" stroke-width="12" stroke-linecap="round" stroke-linejoin="round"/><g fill="#121d35" stroke="#22d3ee" stroke-width="4"><rect x="820" y="220" width="165" height="75" rx="18"/><rect x="820" y="325" width="165" height="75" rx="18"/><rect x="820" y="430" width="165" height="75" rx="18"/></g><text x="852" y="267" fill="#e0f7ff" font-family="Inter,Arial,sans-serif" font-size="24" font-weight="700">Docs</text><text x="852" y="372" fill="#e0f7ff" font-family="Inter,Arial,sans-serif" font-size="24" font-weight="700">Rules</text><text x="852" y="477" fill="#e0f7ff" font-family="Inter,Arial,sans-serif" font-size="24" font-weight="700">Tasks</text><path d="M785 258h35M785 362h35M785 467h35" stroke="#22d3ee" stroke-width="7" stroke-linecap="round"/></g><text x="80" y="665" fill="#f8fbff" font-family="Inter,Arial,sans-serif" font-size="44" font-weight="700">Chatbots &amp; Engineering Workflow Automation</text><text x="82" y="615" fill="#c7d2fe" font-family="Inter,Arial,sans-serif" font-size="24">Knowledge workflows • documentation support • structured automation</text></svg>