<svg xmlns="http://www.w3.org/2000/svg" width="1200" height="720" viewBox="0 0 1200 720" role="img" aria-labelledby="title desc"><title id="title">Electromechanical System Development</title><desc id="desc">Stylized electromechanical packaging illustration with actuator, sensor, PCB and harness elements.</desc><defs><linearGradient id="bg" x1="0" y1="0" x2="1" y2="1"><stop offset="0" stop-color="#071525"/><stop offset="1" stop-color="#162f4d"/></linearGradient><linearGradient id="panel" x1="0" y1="0" x2="1" y2="1"><stop offset="0" stop-color="#1e88e5"/><stop offset="1" stop-color="#00c2a8"/></linearGradient><filter id="shadow" x="-20%" y="-20%" width="140%" height="140%"><feDropShadow dx="0" dy="18" stdDeviation="18" flood-color="#000" flood-opacity=".35"/></filter></defs><rect width="1200" height="720" rx="36" fill="url(#bg)"/><g opacity=".22" stroke="#8fd6ff" stroke-width="2"><path d="M80 130h240m620 0h180M80 590h280m560 0h200"/><path d="M180 90v90m860-10v100M250 520v110m760-150v140"/></g><g filter="url(#shadow)"><rect x="210" y="170" width="780" height="380" rx="28" fill="#0c2035" stroke="#315d83" stroke-width="3"/><rect x="272" y="238" width="300" height="230" rx="18" fill="#112b45" stroke="#4aa3df" stroke-width="3"/><rect x="636" y="235" width="250" height="250" rx="28" fill="url(#panel)" opacity=".92"/><circle cx="760" cy="360" r="74" fill="#0a1a2b" stroke="#e8f8ff" stroke-width="8"/><circle cx="760" cy="360" r="26" fill="#e8f8ff"/><path d="M572 310h64M572 410h64M886 300h82v120h-82" fill="none" stroke="#8fd6ff" stroke-width="10" stroke-linecap="round"/><g fill="#00c2a8"><circle cx="330" cy="300" r="14"/><circle cx="410" cy="300" r="14"/><circle cx="490" cy="300" r="14"/><circle cx="330" cy="390" r="14"/><circle cx="410" cy="390" r="14"/><circle cx="490" cy="390" r="14"/></g><path d="M315 345h190M410 300v90M330 300v90M490 300v90" stroke="#5fbfff" stroke-width="5" opacity=".8"/></g><text x="80" y="665" fill="#dff6ff" font-family="Inter,Arial,sans-serif" font-size="44" font-weight="700">Electromechanical System Development</text><text x="82" y="615" fill="#8fd6ff" font-family="Inter,Arial,sans-serif" font-size="24">Packaging • actuators • sensors • mechanical/electrical interfaces</text></svg>