<svg xmlns="http://www.w3.org/2000/svg" width="1200" height="720" viewBox="0 0 1200 720" role="img" aria-labelledby="title desc"><title id="title">Exoskeleton Arm Mechanical Design</title><desc id="desc">Stylized wearable exoskeleton arm with joints, linkages and actuator placement.</desc><defs><linearGradient id="bg" x1="0" y1="0" x2="1" y2="1"><stop offset="0" stop-color="#081b1f"/><stop offset="1" stop-color="#173c48"/></linearGradient><linearGradient id="link" x1="0" y1="0" x2="1" y2="1"><stop offset="0" stop-color="#00c2a8"/><stop offset="1" stop-color="#ffd166"/></linearGradient><filter id="shadow" x="-20%" y="-20%" width="140%" height="140%"><feDropShadow dx="0" dy="20" stdDeviation="20" flood-color="#000" flood-opacity=".35"/></filter></defs><rect width="1200" height="720" rx="36" fill="url(#bg)"/><g opacity=".18" stroke="#a7f3d0" stroke-width="2"><path d="M90 150h250M860 140h240M90 570h280M840 580h270"/><path d="M220 100v100M980 95v120M310 500v110M910 490v120"/></g><g filter="url(#shadow)"><rect x="225" y="154" width="750" height="405" rx="32" fill="#0d272e" stroke="#2a6976" stroke-width="3"/><path d="M360 410c70-115 175-185 312-188" fill="none" stroke="#1a343b" stroke-width="70" stroke-linecap="round"/><path d="M360 410c70-115 175-185 312-188" fill="none" stroke="url(#link)" stroke-width="28" stroke-linecap="round"/><circle cx="360" cy="410" r="58" fill="#092027" stroke="#00c2a8" stroke-width="12"/><circle cx="520" cy="292" r="50" fill="#092027" stroke="#ffd166" stroke-width="12"/><circle cx="672" cy="222" r="48" fill="#092027" stroke="#00c2a8" stroke-width="12"/><path d="M400 462l100 38h130l102-46" fill="none" stroke="#dffcf6" stroke-width="13" stroke-linecap="round" stroke-linejoin="round" opacity=".9"/><rect x="690" y="312" width="120" height="52" rx="26" fill="#ffd166" transform="rotate(-22 690 312)"/><path d="M790 340l85 55" stroke="#ffd166" stroke-width="12" stroke-linecap="round"/><path d="M340 245c42-35 92-55 150-60" fill="none" stroke="#8be9dc" stroke-width="9" stroke-linecap="round" stroke-dasharray="18 18"/><path d="M765 195c42 12 78 36 108 72" fill="none" stroke="#8be9dc" stroke-width="9" stroke-linecap="round" stroke-dasharray="18 18"/></g><text x="80" y="665" fill="#effffb" font-family="Inter,Arial,sans-serif" font-size="44" font-weight="700">Exoskeleton Arm Mechanical Design</text><text x="82" y="615" fill="#a7f3d0" font-family="Inter,Arial,sans-serif" font-size="24">Wearable interfaces • load paths • actuators • human-machine constraints</text></svg>