<svg xmlns="http://www.w3.org/2000/svg" width="1200" height="720" viewBox="0 0 1200 720" role="img" aria-labelledby="title desc"><title id="title">FEA Data ML Predictor for Beam Deformation</title><desc id="desc">Stylized cantilever beam, finite element mesh and machine learning prediction chart.</desc><defs><linearGradient id="bg" x1="0" y1="0" x2="1" y2="1"><stop offset="0" stop-color="#111827"/><stop offset="1" stop-color="#3a1f5d"/></linearGradient><linearGradient id="heat" x1="0" y1="0" x2="1" y2="0"><stop offset="0" stop-color="#22c55e"/><stop offset=".45" stop-color="#facc15"/><stop offset="1" stop-color="#ef4444"/></linearGradient><filter id="s" x="-20%" y="-20%" width="140%" height="140%"><feDropShadow dx="0" dy="18" stdDeviation="20" flood-color="#000" flood-opacity=".34"/></filter></defs><rect width="1200" height="720" rx="36" fill="url(#bg)"/><g opacity=".16" stroke="#d8b4fe" stroke-width="2"><path d="M80 150h220M910 150h210M80 560h250M880 580h240"/><path d="M180 90v120M1020 100v115M280 500v110M960 500v120"/></g><g filter="url(#s)"><rect x="140" y="170" width="920" height="390" rx="28" fill="#151b2d" stroke="#644a91" stroke-width="3"/><rect x="220" y="255" width="52" height="185" rx="8" fill="#d8b4fe"/><path d="M272 320 C430 318 585 335 720 388" fill="none" stroke="url(#heat)" stroke-width="34" stroke-linecap="round"/><path d="M305 295v78M365 300v88M425 306v98M485 314v105M545 326v108M605 342v107M665 364v94" stroke="#ffffff" stroke-width="3" opacity=".55"/><path d="M300 326h420M312 365h394M334 402h352" stroke="#ffffff" stroke-width="3" opacity=".55"/><rect x="770" y="235" width="230" height="235" rx="18" fill="#101625" stroke="#a78bfa" stroke-width="3"/><path d="M810 405c48-102 92-124 154-142" fill="none" stroke="#22c55e" stroke-width="8" stroke-linecap="round"/><path d="M810 415c46-42 90-73 154-91" fill="none" stroke="#facc15" stroke-width="8" stroke-linecap="round" stroke-dasharray="12 12"/><circle cx="817" cy="405" r="8" fill="#22c55e"/><circle cx="965" cy="263" r="8" fill="#22c55e"/><text x="805" y="278" fill="#d8b4fe" font-family="Inter,Arial,sans-serif" font-size="26" font-weight="700">R² / RMSE</text><text x="805" y="455" fill="#f2e9ff" font-family="Inter,Arial,sans-serif" font-size="22">actual vs predicted</text></g><text x="80" y="665" fill="#fbf7ff" font-family="Inter,Arial,sans-serif" font-size="44" font-weight="700">FEA Data ML Predictor</text><text x="82" y="615" fill="#d8b4fe" font-family="Inter,Arial,sans-serif" font-size="24">ANSYS data • Random Forest • deformation prediction • validation metrics</text></svg>