<svg xmlns="http://www.w3.org/2000/svg" width="1200" height="720" viewBox="0 0 1200 720" role="img" aria-labelledby="title desc"><title id="title">Robotic Control and Electronics Design</title><desc id="desc">Stylized robotic arm, controller board, signal traces and control-loop chart.</desc><defs><linearGradient id="bg" x1="0" y1="0" x2="1" y2="1"><stop offset="0" stop-color="#10131f"/><stop offset="1" stop-color="#27385f"/></linearGradient><linearGradient id="arm" x1="0" y1="0" x2="1" y2="1"><stop offset="0" stop-color="#7c4dff"/><stop offset="1" stop-color="#00d4ff"/></linearGradient><filter id="s" x="-20%" y="-20%" width="140%" height="140%"><feDropShadow dx="0" dy="18" stdDeviation="20" flood-color="#000" flood-opacity=".32"/></filter></defs><rect width="1200" height="720" rx="36" fill="url(#bg)"/><g opacity=".22" stroke="#9fc3ff" stroke-width="2"><path d="M90 180h220M920 160h190M80 560h260M890 570h230"/><path d="M160 100v110M1030 95v125M270 500v110M990 480v120"/></g><g filter="url(#s)"><rect x="160" y="170" width="360" height="300" rx="28" fill="#141d34" stroke="#435b93" stroke-width="3"/><path d="M220 360c55-95 126-135 222-122" fill="none" stroke="#00d4ff" stroke-width="8" opacity=".9"/><path d="M230 390h235" stroke="#9fc3ff" stroke-width="5" stroke-linecap="round"/><circle cx="255" cy="350" r="46" fill="#111827" stroke="url(#arm)" stroke-width="13"/><rect x="320" y="246" width="180" height="48" rx="24" transform="rotate(-20 320 246)" fill="url(#arm)"/><circle cx="515" cy="232" r="34" fill="#111827" stroke="#00d4ff" stroke-width="11"/><rect x="535" y="230" width="150" height="42" rx="21" transform="rotate(24 535 230)" fill="#7c4dff"/><path d="M665 292l66 38M670 323l58 33" stroke="#dff8ff" stroke-width="8" stroke-linecap="round"/><rect x="700" y="210" width="330" height="260" rx="22" fill="#121c31" stroke="#00d4ff" stroke-width="3"/><path d="M750 360h70l38-84 45 150 42-108h48" fill="none" stroke="#00d4ff" stroke-width="8" stroke-linecap="round" stroke-linejoin="round"/><g fill="#7c4dff"><circle cx="770" cy="260" r="13"/><circle cx="835" cy="260" r="13"/><circle cx="900" cy="260" r="13"/><circle cx="965" cy="260" r="13"/></g><path d="M770 260h195M835 260v58M900 260v120" stroke="#9fc3ff" stroke-width="4" opacity=".75"/></g><text x="80" y="665" fill="#f2f6ff" font-family="Inter,Arial,sans-serif" font-size="44" font-weight="700">Robotic Control &amp; Electronics Design</text><text x="82" y="615" fill="#a9c4ff" font-family="Inter,Arial,sans-serif" font-size="24">Control loops • schematics • mechatronics • robot mechanisms</text></svg>