<svg xmlns="http://www.w3.org/2000/svg" width="1200" height="720" viewBox="0 0 1200 720" role="img" aria-labelledby="title desc"><title id="title">Interactive Stock Data Dashboard</title><desc id="desc">Stylized financial analytics dashboard with time-series chart, pie chart and API cards.</desc><defs><linearGradient id="bg" x1="0" y1="0" x2="1" y2="1"><stop offset="0" stop-color="#07111f"/><stop offset="1" stop-color="#12374a"/></linearGradient><linearGradient id="line" x1="0" y1="0" x2="1" y2="0"><stop offset="0" stop-color="#38bdf8"/><stop offset="1" stop-color="#34d399"/></linearGradient><filter id="s" x="-20%" y="-20%" width="140%" height="140%"><feDropShadow dx="0" dy="18" stdDeviation="20" flood-color="#000" flood-opacity=".35"/></filter></defs><rect width="1200" height="720" rx="36" fill="url(#bg)"/><g opacity=".18" stroke="#7dd3fc" stroke-width="2"><path d="M90 145h240M880 135h240M80 580h260M910 585h210"/><path d="M200 90v105M1010 90v130M290 510v120M950 500v120"/></g><g filter="url(#s)"><rect x="155" y="150" width="890" height="420" rx="28" fill="#0d1c2d" stroke="#2a6080" stroke-width="3"/><rect x="205" y="220" width="515" height="270" rx="18" fill="#10243a" stroke="#38bdf8" stroke-width="2"/><path d="M250 430c60-92 110-45 165-102 68-70 122 12 180-50 42-46 68-38 94-78" fill="none" stroke="url(#line)" stroke-width="10" stroke-linecap="round" stroke-linejoin="round"/><path d="M250 450h420M250 390h420M250 330h420M250 270h420" stroke="#7dd3fc" stroke-width="2" opacity=".24"/><rect x="760" y="220" width="220" height="125" rx="18" fill="#10243a" stroke="#34d399" stroke-width="2"/><path d="M870 282l76 44a88 88 0 1 1 0-88z" fill="#34d399"/><path d="M870 282v-88a88 88 0 0 1 76 44z" fill="#38bdf8"/><path d="M870 282l-76-44a88 88 0 0 1 76-44z" fill="#facc15"/><rect x="760" y="380" width="220" height="110" rx="18" fill="#10243a" stroke="#7dd3fc" stroke-width="2"/><text x="790" y="425" fill="#dff8ff" font-family="Inter,Arial,sans-serif" font-size="24" font-weight="700">FastAPI</text><text x="790" y="458" fill="#a7f3d0" font-family="Inter,Arial,sans-serif" font-size="21">Plotly • Pandas</text><g fill="#38bdf8"><circle cx="260" cy="194" r="8"/><circle cx="290" cy="194" r="8"/><circle cx="320" cy="194" r="8"/></g></g><text x="80" y="665" fill="#ecfeff" font-family="Inter,Arial,sans-serif" font-size="44" font-weight="700">Interactive Stock Data Dashboard</text><text x="82" y="615" fill="#a5f3fc" font-family="Inter,Arial,sans-serif" font-size="24">FastAPI • Plotly charts • pandas transforms • comparative market EDA</text></svg>